<svg xmlns="http://www.w3.org/2000/svg" viewBox="0 0 96 96" role="img" aria-labelledby="t">
<title id="t">VitaTrace360</title>
<defs>
  <linearGradient id="bg" x1="0" y1="0" x2="1" y2="1">
    <stop stop-color="#06163A"/>
    <stop offset=".55" stop-color="#0B2C6D"/>
    <stop offset="1" stop-color="#2D6DFF"/>
  </linearGradient>
  <linearGradient id="ice" x1="18" y1="16" x2="78" y2="82">
    <stop stop-color="#FFFFFF"/>
    <stop offset=".55" stop-color="#BFE6FF"/>
    <stop offset="1" stop-color="#3E7BFF"/>
  </linearGradient>
</defs>
<rect x="7" y="7" width="82" height="82" rx="25" fill="url(#bg)"/>
<path d="M48 18c10 7 20 9 20 9v19c0 14-9 23-20 31-11-8-20-17-20-31V27s10-2 20-9Z" fill="none" stroke="url(#ice)" stroke-width="5" stroke-linejoin="round"/>
<circle cx="48" cy="48" r="7" fill="#F8FBFF"/>
<path d="M37 48a11 11 0 0 1 11-11M59 48a11 11 0 0 1-11 11M38 57a15 15 0 0 0 20 0" fill="none" stroke="url(#ice)" stroke-width="5" stroke-linecap="round"/>
<path d="M24 63c15-18 45-18 60-1" fill="none" stroke="#78CBFF" stroke-width="4" stroke-linecap="round" opacity=".9"/>
<circle cx="24" cy="63" r="4" fill="#F8FBFF"/>
<circle cx="84" cy="62" r="4" fill="#F8FBFF"/>
</svg>