<svg xmlns="http://www.w3.org/2000/svg" viewBox="0 0 900 620"><defs><linearGradient id="bg" x1="0" x2="1" y1="0" y2="1"><stop stop-color="#ffffff"/><stop offset="1" stop-color="#f4f8ff"/></linearGradient><linearGradient id="ac" x1="0" x2="1"><stop stop-color="#5abaff"/><stop offset="1" stop-color="#2d6dff"/></linearGradient><filter id="s" x="-20%" y="-20%" width="140%" height="140%"><feDropShadow dx="0" dy="24" stdDeviation="22" flood-color="#04231c" flood-opacity=".16"/></filter></defs><rect x="38" y="30" width="824" height="560" rx="42" fill="url(#bg)" filter="url(#s)"/><rect x="76" y="78" width="748" height="74" rx="24" fill="#0b1f4d"/><circle cx="116" cy="115" r="10" fill="#5abaff"/><circle cx="146" cy="115" r="10" fill="#c8ddff"/><circle cx="176" cy="115" r="10" fill="#ffffff" opacity=".75"/><text x="630" y="121" fill="#cbe8df" font-family="Arial" font-size="22" font-weight="700">VitaTrace360</text><rect x="76" y="184" width="210" height="344" rx="28" fill="#ffffff" stroke="#dfeafb"/><rect x="320" y="184" width="504" height="154" rx="28" fill="#ffffff" stroke="#dfeafb"/><rect x="320" y="374" width="238" height="154" rx="28" fill="#ffffff" stroke="#dfeafb"/><rect x="586" y="374" width="238" height="154" rx="28" fill="#ffffff" stroke="#dfeafb"/><text x="106" y="235" fill="#0b1f4d" font-family="Arial" font-size="24" font-weight="800">Products</text><text x="350" y="235" fill="#0b1f4d" font-family="Arial" font-size="24" font-weight="800">Field activity</text><text x="350" y="425" fill="#0b1f4d" font-family="Arial" font-size="24" font-weight="800">QR trust</text><text x="616" y="425" fill="#0b1f4d" font-family="Arial" font-size="24" font-weight="800">Reports</text><rect x="106" y="270" width="150" height="16" rx="8" fill="#f4f8ff"/><rect x="106" y="304" width="110" height="16" rx="8" fill="#f4f8ff"/><rect x="106" y="338" width="130" height="16" rx="8" fill="#f4f8ff"/><rect x="350" y="270" width="420" height="18" rx="9" fill="#f4f8ff"/><rect x="350" y="302" width="310" height="18" rx="9" fill="#f4f8ff"/><path d="M357 505h40v-55h22v55h40v-82h22v82h40" fill="none" stroke="url(#ac)" stroke-width="12" stroke-linecap="round"/><rect x="626" y="462" width="44" height="44" rx="8" fill="#0b1f4d"/><rect x="680" y="462" width="44" height="44" rx="8" fill="#5abaff"/><rect x="734" y="462" width="44" height="44" rx="8" fill="#c8ddff"/><circle cx="432" cy="302" r="56" fill="none" stroke="#5abaff" stroke-width="18" stroke-dasharray="220 100"/><text x="413" y="310" fill="#0b1f4d" font-family="Arial" font-size="22" font-weight="800">72%</text></svg>