<svg xmlns="http://www.w3.org/2000/svg" viewBox="0 0 700 520"><defs><linearGradient id="g" x1="0" y1="0" x2="1" y2="1"><stop stop-color="#ffffff"/><stop offset="1" stop-color="#f4f8ff"/></linearGradient></defs><rect width="700" height="520" rx="34" fill="url(#g)"/><rect x="46" y="44" width="608" height="432" rx="30" fill="#fff" stroke="#dfeafb"/><rect x="76" y="78" width="280" height="280" rx="18" fill="#0b1f4d"/><g fill="#fff"><rect x="102" y="104" width="58" height="58"/><rect x="272" y="104" width="58" height="58"/><rect x="102" y="274" width="58" height="58"/><rect x="190" y="104" width="26" height="26"/><rect x="224" y="138" width="26" height="26"/><rect x="190" y="190" width="26" height="26"/><rect x="248" y="216" width="26" height="26"/><rect x="190" y="274" width="26" height="58"/><rect x="248" y="274" width="82" height="26"/><rect x="224" y="326" width="26" height="26"/><rect x="302" y="326" width="28" height="28"/></g><text x="396" y="126" fill="#0b1f4d" font-family="Arial" font-size="30" font-weight="800">QR Product Page</text><text x="396" y="174" fill="#607299" font-family="Arial" font-size="18">Official product information, usage, warnings, lot details and feedback.</text><rect x="396" y="226" width="210" height="18" rx="9" fill="#edf5ff"/><rect x="396" y="264" width="160" height="18" rx="9" fill="#edf5ff"/><rect x="396" y="302" width="230" height="18" rx="9" fill="#edf5ff"/><rect x="396" y="364" width="150" height="48" rx="24" fill="#2d6dff"/><text x="424" y="395" fill="#fff" font-family="Arial" font-size="16" font-weight="800">View page</text></svg>